<svg width="115" height="16" viewBox="0 0 115 16" fill="none" xmlns="http://www.w3.org/2000/svg">
<path d="M8.79802 1.62478L10.118 4.26478C10.298 4.62478 10.778 4.98478 11.178 5.04478L13.568 5.44478C15.098 5.70478 15.458 6.80478 14.358 7.90478L12.498 9.77478C12.188 10.0848 12.008 10.6948 12.108 11.1348L12.638 13.4448C13.058 15.2648 12.088 15.9748 10.478 15.0248L8.23802 13.6948C7.82802 13.4548 7.16802 13.4548 6.75802 13.6948L4.50802 15.0148C2.89802 15.9648 1.92802 15.2548 2.34802 13.4348L2.87802 11.1248C2.97802 10.6948 2.79802 10.0848 2.48802 9.76478L0.63802 7.91478C-0.46198 6.81478 -0.10198 5.70478 1.42802 5.45478L3.81802 5.05478C4.21802 4.98478 4.69802 4.63478 4.87802 4.27478L6.19802 1.63478C6.90802 0.194781 8.08802 0.194781 8.79802 1.62478Z" fill="#BC8D14"/>
<path d="M33.7941 1.62478L35.1141 4.26478C35.2941 4.62478 35.7741 4.98478 36.1741 5.04478L38.5641 5.44478C40.0941 5.70478 40.4541 6.80478 39.3541 7.90478L37.4941 9.77478C37.1841 10.0848 37.0041 10.6948 37.1041 11.1348L37.6341 13.4448C38.0541 15.2648 37.0841 15.9748 35.4741 15.0248L33.2341 13.6948C32.8241 13.4548 32.1641 13.4548 31.7541 13.6948L29.5041 15.0148C27.8941 15.9648 26.9241 15.2548 27.3441 13.4348L27.8741 11.1248C27.9741 10.6948 27.7941 10.0848 27.4841 9.76478L25.6341 7.91478C24.5341 6.81478 24.8941 5.70478 26.4241 5.45478L28.8141 5.05478C29.2141 4.98478 29.6941 4.63478 29.8741 4.27478L31.1941 1.63478C31.9041 0.194781 33.0841 0.194781 33.7941 1.62478Z" fill="#BC8D14"/>
<path d="M58.7901 1.62478L60.1101 4.26478C60.2901 4.62478 60.7701 4.98478 61.1701 5.04478L63.5601 5.44478C65.0901 5.70478 65.4501 6.80478 64.3501 7.90478L62.4901 9.77478C62.1801 10.0848 62.0001 10.6948 62.1001 11.1348L62.6301 13.4448C63.0501 15.2648 62.0801 15.9748 60.4701 15.0248L58.2301 13.6948C57.8201 13.4548 57.1601 13.4548 56.7501 13.6948L54.5001 15.0148C52.8901 15.9648 51.9201 15.2548 52.3401 13.4348L52.8701 11.1248C52.9701 10.6948 52.7901 10.0848 52.4801 9.76478L50.6301 7.91478C49.5301 6.81478 49.8901 5.70478 51.4201 5.45478L53.8101 5.05478C54.2101 4.98478 54.6901 4.63478 54.8701 4.27478L56.1901 1.63478C56.9001 0.194781 58.0801 0.194781 58.7901 1.62478Z" fill="#BC8D14"/>
<path d="M83.7861 1.62478L85.1061 4.26478C85.2861 4.62478 85.7661 4.98478 86.1661 5.04478L88.5561 5.44478C90.0861 5.70478 90.4461 6.80478 89.3461 7.90478L87.4861 9.77478C87.1761 10.0848 86.9961 10.6948 87.0961 11.1348L87.6261 13.4448C88.0461 15.2648 87.0761 15.9748 85.4661 15.0248L83.2261 13.6948C82.8161 13.4548 82.1561 13.4548 81.7461 13.6948L79.4961 15.0148C77.8861 15.9648 76.9161 15.2548 77.3361 13.4348L77.8661 11.1248C77.9661 10.6948 77.7861 10.0848 77.4761 9.76478L75.6261 7.91478C74.5261 6.81478 74.8861 5.70478 76.4161 5.45478L78.8061 5.05478C79.2061 4.98478 79.6861 4.63478 79.8661 4.27478L81.1861 1.63478C81.8961 0.194781 83.0761 0.194781 83.7861 1.62478Z" fill="#BC8D14"/>
<path d="M108.782 1.62478L110.102 4.26478C110.282 4.62478 110.762 4.98478 111.162 5.04478L113.552 5.44478C115.082 5.70478 115.442 6.80478 114.342 7.90478L112.482 9.77478C112.172 10.0848 111.992 10.6948 112.092 11.1348L112.622 13.4448C113.042 15.2648 112.072 15.9748 110.462 15.0248L108.222 13.6948C107.812 13.4548 107.152 13.4548 106.742 13.6948L104.492 15.0148C102.882 15.9648 101.912 15.2548 102.332 13.4348L102.862 11.1248C102.962 10.6948 102.782 10.0848 102.472 9.76478L100.622 7.91478C99.5222 6.81478 99.8822 5.70478 101.412 5.45478L103.802 5.05478C104.202 4.98478 104.682 4.63478 104.862 4.27478L106.182 1.63478C106.892 0.194781 108.072 0.194781 108.782 1.62478Z" fill="#434240"/>
</svg>
