<svg width="29" height="30" viewBox="0 0 29 30" fill="none" xmlns="http://www.w3.org/2000/svg">
<path fill-rule="evenodd" clip-rule="evenodd" d="M20.2948 7.96465C18.7877 6.52726 16.7764 5.74421 14.6954 5.77639C10.8874 5.77639 7.6533 8.34543 6.50015 11.8048C5.88873 13.6176 5.88873 15.5807 6.50015 17.3935H6.5055C7.664 20.8476 10.8928 23.4166 14.7008 23.4166C16.6665 23.4166 18.354 22.9138 19.6619 22.0258V22.0222C21.2012 21.0031 22.2525 19.3995 22.5796 17.5866H14.6954V11.9658H28.4633C28.6349 12.9419 28.7154 13.9395 28.7154 14.9318C28.7154 19.3713 27.1288 23.1248 24.3681 25.667L24.371 25.6693C21.9521 27.9004 18.6322 29.193 14.6954 29.193C9.17648 29.193 4.12952 26.0822 1.65163 21.1533C-0.41863 17.0288 -0.418625 12.1696 1.65164 8.04514C4.12953 3.11081 9.17648 7.07802e-06 14.6954 7.07802e-06C18.3211 -0.0429001 21.8234 1.3194 24.4622 3.79729L20.2948 7.96465Z" fill="#4A4A4A"/>
</svg>
