<svg width="30" height="30" viewBox="0 0 30 30" fill="none" xmlns="http://www.w3.org/2000/svg">
<g clip-path="url(#clip0_2_274)">
<path d="M14.5965 2.62851C18.4965 2.62851 18.9583 2.64561 20.4921 2.71403C21.9175 2.77675 22.6873 3.01623 23.2004 3.21579C23.8789 3.47807 24.3693 3.79737 24.8768 4.30482C25.3899 4.81798 25.7035 5.30263 25.9658 5.98114C26.1654 6.4943 26.4048 7.26974 26.4675 8.68947C26.536 10.2289 26.5531 10.6908 26.5531 14.5851C26.5531 18.4851 26.536 18.9469 26.4675 20.4807C26.4048 21.9061 26.1654 22.6759 25.9658 23.189C25.7035 23.8675 25.3842 24.3579 24.8768 24.8654C24.3636 25.3785 23.8789 25.6921 23.2004 25.9544C22.6873 26.1539 21.9118 26.3934 20.4921 26.4561C18.9526 26.5246 18.4908 26.5417 14.5965 26.5417C10.6965 26.5417 10.2347 26.5246 8.70088 26.4561C7.27544 26.3934 6.5057 26.1539 5.99254 25.9544C5.31404 25.6921 4.82368 25.3728 4.31623 24.8654C3.80307 24.3522 3.48947 23.8675 3.22719 23.189C3.02763 22.6759 2.78816 21.9004 2.72544 20.4807C2.65702 18.9412 2.63991 18.4794 2.63991 14.5851C2.63991 10.6851 2.65702 10.2232 2.72544 8.68947C2.78816 7.26403 3.02763 6.4943 3.22719 5.98114C3.48947 5.30263 3.80877 4.81228 4.31623 4.30482C4.82939 3.79167 5.31404 3.47807 5.99254 3.21579C6.5057 3.01623 7.28114 2.77675 8.70088 2.71403C10.2347 2.64561 10.6965 2.62851 14.5965 2.62851ZM14.5965 0C10.6338 0 10.1377 0.0171053 8.58114 0.0855263C7.03026 0.153947 5.96404 0.404824 5.04035 0.764035C4.07675 1.14035 3.2614 1.6364 2.45175 2.45175C1.6364 3.2614 1.14035 4.07676 0.764035 5.03465C0.404825 5.96404 0.153947 7.02456 0.0855263 8.57544C0.0171053 10.1377 0 10.6338 0 14.5965C0 18.5592 0.0171053 19.0553 0.0855263 20.6118C0.153947 22.1627 0.404825 23.2289 0.764035 24.1526C1.14035 25.1162 1.6364 25.9316 2.45175 26.7412C3.2614 27.5509 4.07676 28.0526 5.03465 28.4232C5.96404 28.7825 7.02456 29.0333 8.57544 29.1018C10.132 29.1702 10.6281 29.1873 14.5908 29.1873C18.5535 29.1873 19.0496 29.1702 20.6061 29.1018C22.157 29.0333 23.2232 28.7825 24.1469 28.4232C25.1048 28.0526 25.9202 27.5509 26.7298 26.7412C27.5395 25.9316 28.0412 25.1162 28.4118 24.1583C28.7711 23.2289 29.0219 22.1684 29.0904 20.6175C29.1588 19.061 29.1759 18.5649 29.1759 14.6022C29.1759 10.6395 29.1588 10.1434 29.0904 8.58684C29.0219 7.03596 28.7711 5.96974 28.4118 5.04605C28.0526 4.07675 27.5566 3.2614 26.7412 2.45175C25.9316 1.64211 25.1162 1.14035 24.1583 0.769737C23.2289 0.410526 22.1684 0.159649 20.6175 0.0912281C19.0553 0.0171053 18.5592 0 14.5965 0Z" fill="#4A4A4A"/>
<path d="M14.5965 7.09863C10.457 7.09863 7.09869 10.457 7.09869 14.5964C7.09869 18.7359 10.457 22.0942 14.5965 22.0942C18.736 22.0942 22.0943 18.7359 22.0943 14.5964C22.0943 10.457 18.736 7.09863 14.5965 7.09863ZM14.5965 19.46C11.911 19.46 9.7329 17.282 9.7329 14.5964C9.7329 11.9109 11.911 9.73284 14.5965 9.73284C17.282 9.73284 19.4601 11.9109 19.4601 14.5964C19.4601 17.282 17.282 19.46 14.5965 19.46Z" fill="#4A4A4A"/>
<path d="M24.1412 6.8022C24.1412 7.7715 23.3544 8.55264 22.3908 8.55264C21.4215 8.55264 20.6404 7.7658 20.6404 6.8022C20.6404 5.8329 21.4272 5.05176 22.3908 5.05176C23.3544 5.05176 24.1412 5.8386 24.1412 6.8022Z" fill="#4A4A4A"/>
</g>
<defs>
<clipPath id="clip0_2_274">
<rect width="29.193" height="29.193" fill="white"/>
</clipPath>
</defs>
</svg>
